<svg width="16" height="17" viewBox="0 0 16 17" fill="none" xmlns="http://www.w3.org/2000/svg">
<path d="M8 8.5C6.9 8.5 5.95833 8.08385 5.175 7.25156C4.39167 6.41927 4 5.41875 4 4.25C4 3.08125 4.39167 2.08073 5.175 1.24844C5.95833 0.416146 6.9 0 8 0C9.1 0 10.0417 0.416146 10.825 1.24844C11.6083 2.08073 12 3.08125 12 4.25C12 5.41875 11.6083 6.41927 10.825 7.25156C10.0417 8.08385 9.1 8.5 8 8.5ZM2 17C1.45 17 0.979333 16.7921 0.588 16.3763C0.196 15.9598 0 15.4594 0 14.875V14.025C0 13.4229 0.146 12.8694 0.438 12.3643C0.729334 11.86 1.11667 11.475 1.6 11.2094C2.63333 10.6604 3.68333 10.2485 4.75 9.97369C5.81667 9.69956 6.9 9.5625 8 9.5625C9.1 9.5625 10.1833 9.69956 11.25 9.97369C12.3167 10.2485 13.3667 10.6604 14.4 11.2094C14.8833 11.475 15.2707 11.86 15.562 12.3643C15.854 12.8694 16 13.4229 16 14.025V14.875C16 15.4594 15.8043 15.9598 15.413 16.3763C15.021 16.7921 14.55 17 14 17H2Z" fill="#2A62FB"/>
</svg>
