<svg width="20" height="15" viewBox="0 0 20 15" fill="none" xmlns="http://www.w3.org/2000/svg">
<path d="M15.1835 4.85156L18.4174 1.52344C18.6009 1.33594 18.8188 1.24219 19.0711 1.24219C19.3234 1.24219 19.5413 1.33594 19.7248 1.52344C19.9083 1.71094 20 1.93359 20 2.19141C20 2.44922 19.9083 2.67188 19.7248 2.85938L15.8257 6.84375C15.6422 7.03125 15.4281 7.125 15.1835 7.125C14.9388 7.125 14.7248 7.03125 14.5413 6.84375L12.5917 4.85156C12.4083 4.66406 12.3165 4.44141 12.3165 4.18359C12.3165 3.92578 12.4083 3.70312 12.5917 3.51562C12.7752 3.32812 12.9893 3.23438 13.2339 3.23438C13.4786 3.23438 13.6927 3.32812 13.8761 3.51562L15.1835 4.85156ZM7.33945 7.5C6.33028 7.5 5.46636 7.13281 4.74771 6.39844C4.02905 5.66406 3.66972 4.78125 3.66972 3.75C3.66972 2.71875 4.02905 1.83594 4.74771 1.10156C5.46636 0.367188 6.33028 0 7.33945 0C8.34862 0 9.21254 0.367188 9.93119 1.10156C10.6498 1.83594 11.0092 2.71875 11.0092 3.75C11.0092 4.78125 10.6498 5.66406 9.93119 6.39844C9.21254 7.13281 8.34862 7.5 7.33945 7.5ZM0 13.125V12.375C0 11.8438 0.133792 11.3555 0.401376 10.9102C0.66896 10.4648 1.02446 10.125 1.46789 9.89062C2.4159 9.40625 3.3792 9.04297 4.3578 8.80078C5.33639 8.55859 6.33028 8.4375 7.33945 8.4375C8.34862 8.4375 9.34251 8.55859 10.3211 8.80078C11.2997 9.04297 12.263 9.40625 13.211 9.89062C13.6544 10.125 14.0099 10.4648 14.2775 10.9102C14.5451 11.3555 14.6789 11.8438 14.6789 12.375V13.125C14.6789 13.6406 14.4992 14.082 14.1399 14.4492C13.7806 14.8164 13.3486 15 12.844 15H1.83486C1.33028 15 0.898318 14.8164 0.538991 14.4492C0.179664 14.082 0 13.6406 0 13.125Z" fill="#2A62FB"/>
</svg>
