<svg width="52" height="21" viewBox="0 0 52 21" fill="none" xmlns="http://www.w3.org/2000/svg">
<path d="M6.6 6.3C8.8 6.3 10.2 7.6 10.2 9.6H2.8C2.8 7.5 4.7 6.3 6.6 6.3ZM6.7 4.6C3.1 4.6 0 6.1 0 10.7C0 15.3 2 16.7 6.7 16.7C11.4 16.7 12.6 13.1 12.6 13.1H9.9C9.9 13.1 9.3 15.1 6.5 15.1C3.7 15.1 2.6 13.6 2.6 11.4H12.8V10C12.8 7.9 11.4 4.6 6.5 4.6H6.7Z" fill="white"/>
<path d="M19.6 6.4C22.1 6.4 23.6 8.2 23.6 10.7C23.6 13.2 21.8 15 19.6 15C17.4 15 15.6 13 15.6 10.7C15.6 8.4 16.9 6.4 19.6 6.4ZM13 0V14.3C13 15.1 13 16.3 13 16.3H15.6C15.6 16.3 15.6 15.5 15.6 14.7C15.6 14.7 16.9 16.7 20.3 16.7C23.7 16.7 26.4 14.2 26.4 10.6C26.4 7 24.1 4.6 20.3 4.6C16.5 4.6 15.6 6.5 15.6 6.5V0H13Z" fill="white"/>
<path d="M35.6 10.9V11.6C35.6 12.6 35 15 31.5 15C28 15 28.7 14 28.7 12.9C28.7 10.9 31.5 10.8 35.6 10.8M32.7 4.6C27.3 4.6 26.9 7.6 26.9 8.1H29.6C29.6 8.1 29.7 6.4 32.5 6.4C35.3 6.4 35.7 7.2 35.7 8.8V9.4H32.5C28.3 9.4 26.1 10.6 26.1 13.1C26.1 15.6 28.2 16.9 30.9 16.9C33.6 16.9 35.9 14.8 35.9 14.8C35.9 15.6 35.9 16.5 35.9 16.5H38.3C38.3 16.5 38.3 15.5 38.3 14.8V9.2C38.3 5.5 35.3 4.7 32.7 4.7" fill="white"/>
<path d="M48.6 5L44.2 13.8L39.8 5H36.8L42.8 16.3L40.5 20.6H43.4L51.3 5H48.6Z" fill="white"/>
</svg>
