<svg width="20" height="18" viewBox="0 0 20 18" fill="none" xmlns="http://www.w3.org/2000/svg">
<path d="M19.2787 5.70943C18.8197 5.00377 18.1967 4.42642 17.377 4.07359V12.0604C18.1639 11.7075 18.8197 11.1623 19.2787 10.4245C19.7377 9.68679 19.9672 8.88491 19.9672 8.05094C19.9672 7.21698 19.7377 6.41509 19.2787 5.70943ZM15.377 0V16.0698L10.2295 12.0283H7.14754V16.0698C7.14754 16.3585 7.04918 16.583 6.85246 16.7755C6.65574 16.9679 6.42623 17.0642 6.13115 17.0642H4.06557C3.77049 17.0642 3.54098 16.9679 3.34426 16.7755C3.14754 16.583 3.04918 16.3585 3.04918 16.0698V12.0283H2C1.44262 12.0283 0.983607 11.8358 0.590164 11.4509C0.196721 11.066 0 10.5849 0 10.0717V6.03019C0 5.48491 0.196721 5.03585 0.590164 4.65094C0.983607 4.26604 1.47541 4.07359 2 4.07359H10.1967L15.377 0Z" fill="#2A62FB"/>
</svg>
