<svg width="89" height="19" viewBox="0 0 89 19" fill="none" xmlns="http://www.w3.org/2000/svg">
<path d="M49.9024 7.02092C50.4893 6.72765 51.0057 6.70418 51.2462 6.70418C52.5666 6.68072 53.6463 7.46082 54.1099 8.68083C54.2096 8.90959 54.3563 9.36709 54.3563 10.0416C54.3563 11.9303 53.1886 12.8101 52.549 13.1092C52.2966 13.2324 51.88 13.379 51.2286 13.379C49.3391 13.379 48.1948 11.8482 48.1714 10.0885C48.1714 8.24679 49.2628 7.34352 49.9083 7.02092M47.4789 0.00586542L46.4461 2.67464L46.2055 2.82127C45.2842 3.41954 43.3712 4.96215 42.6788 7.889C42.4499 8.8568 42.4265 9.71315 42.4265 10.0592C42.4265 13.7486 44.4568 16.7223 47.9366 17.9658C49.4858 18.523 50.8296 18.5699 51.4516 18.5699C56.463 18.5699 60.0836 14.9979 60.0836 9.98882C60.0836 4.97975 59.9252 8.07083 59.8313 7.70131C59.1389 5.05013 57.2259 3.50753 56.4689 3.0031L55.9114 2.65117L56.9324 0H52.9773L52.3905 1.53088C51.9915 1.48982 51.5866 1.47222 51.1817 1.47809H50.8766L51.4458 0H47.4907L47.4789 0.00586542Z" fill="#000C36"/>
<path d="M78.7618 9.2028V6.15864H79.689C80.6631 6.15864 81.69 6.3522 81.69 7.64846C81.69 8.94472 81.5375 8.4051 81.4377 8.56347C81.0211 9.19107 80.311 9.20866 79.7125 9.20866H78.7618V9.2028ZM80.0587 1.94727H73.3456V18.218H78.756V11.7425L82.0304 18.218H88.1391L84.1722 11.6545C84.7238 11.4551 85.1346 11.2968 85.6217 10.9624C86.3434 10.4404 87.2999 9.42569 87.2999 7.32C87.2999 5.21431 86.6603 4.66882 86.2496 4.1468C85.0877 2.62179 83.3976 2.1115 81.514 1.99419C81.0269 1.94727 80.5399 1.94727 80.0469 1.94727" fill="#000C36"/>
<path d="M33.149 9.2028V6.15864H34.0761C35.0502 6.15864 36.0772 6.3522 36.0772 7.64846C36.0772 8.94472 35.9246 8.4051 35.8248 8.56347C35.4082 9.19107 34.6982 9.20866 34.0996 9.20866H33.149V9.2028ZM34.4517 1.94727H27.7444V18.218H33.1548V11.7425L36.4293 18.218H42.538L38.5711 11.6545C39.1227 11.4551 39.5335 11.2968 40.0205 10.9624C40.7423 10.4404 41.6988 9.42569 41.6988 7.32C41.6988 5.21431 41.0592 4.66882 40.6484 4.1468C39.4865 2.62179 37.7965 2.1115 35.9129 1.99419C35.4258 1.94727 34.9388 1.94727 34.4458 1.94727" fill="#000C36"/>
<path d="M14.0541 1.94727V6.65134H17.3344V18.218H23.1673V6.65134H26.4711V1.94727H14.06H14.0541Z" fill="#000C36"/>
<path d="M61.1399 18.218H72.1485V13.8658H66.5034V12.0651H71.5617V7.92414H66.5034V6.30528H71.9842V1.94727H61.1399V18.218Z" fill="#000C36"/>
<path d="M11.5895 2.25233C10.3103 1.7479 8.80804 1.41357 7.42316 1.41357C4.94095 1.41357 2.45287 2.36377 1.30859 4.68648C1.10321 5.09706 0.71591 5.98861 0.71591 7.24967C0.71591 10.112 2.81669 11.0915 3.7908 11.4376C4.44216 11.6487 5.51016 11.8775 6.20847 11.9948L6.58989 12.0769C7.05934 12.1942 7.51119 12.4171 7.51119 12.9919C7.51119 13.5667 6.87156 14.1298 5.80943 14.1298C4.7473 14.1298 2.93406 13.1914 1.81325 12.4171L0 16.6989C2.15947 17.8309 4.13115 18.4996 6.63097 18.4996C9.13079 18.4996 10.1342 18.0597 11.5778 16.7751C13.2502 15.2384 13.4556 13.5491 13.4556 12.6576C13.4556 11.7661 13.1622 9.40229 10.4687 8.35824C9.77041 8.10016 8.56158 7.82449 7.8398 7.66025L7.44664 7.584C6.98892 7.47843 6.496 7.26727 6.496 6.69246C6.496 6.11765 7.05934 5.74226 7.98064 5.7188C9.28336 5.7188 10.3572 6.32294 11.4076 6.95054L13.0624 2.91512C12.6986 2.73916 12.2115 2.49281 11.5837 2.24647" fill="#000C36"/>
</svg>
