<svg width="17" height="30" viewBox="0 0 17 30" fill="none" xmlns="http://www.w3.org/2000/svg">
<mask id="mask0_2_203" style="mask-type:luminance" maskUnits="userSpaceOnUse" x="0" y="0" width="17" height="30">
<path d="M16.7 0H0V29.5H16.7V0Z" fill="white"/>
</mask>
<g mask="url(#mask0_2_203)">
<path d="M16 0.7C16.5 1.2 16.7 1.7 16.7 2.4V23.9C16.7 24.6 16.5 25.1 16 25.6C15.5 26.1 15 26.3 14.3 26.3H2.4C1.8 26.3 1.2 26.1 0.7 25.6C0.2 25.1 0 24.6 0 23.9V2.4C0 1.7 0.2 1.2 0.7 0.7C1.2 0.2 1.7 0 2.4 0H14.4C15 0 15.6 0.2 16.1 0.7M14.4 4.8H2.4V21.5H14.4V4.8Z" fill="#2A62FB"/>
</g>
<path d="M6 15.3V10.4L11.2 12.8L6 15.3Z" fill="#2A62FB"/>
</svg>
